<svg xmlns="http://www.w3.org/2000/svg" xmlns:xlink="http://www.w3.org/1999/xlink" xmlns:lucid="lucid" width="1304.8" height="460"><g transform="translate(-380 -220)" lucid:page-tab-id="0_0"><path d="M0 0h1870.4v1323.2H0z" fill="#fff"/><path d="M400 240h160v120H400z" stroke="#000" stroke-width="2" fill="#fff"/><use xlink:href="#a" transform="matrix(1,0,0,1,405,245) translate(49.5 58.6)"/><path d="M400 540h160v120H400z" stroke="#000" stroke-width="2" fill="#fff"/><use xlink:href="#b" transform="matrix(1,0,0,1,405,545) translate(44.05 58.6)"/><path d="M480 395.86v108.28" fill="none"/><path d="M484.5 395.86c0 2.48-2 4.5-4.5 4.5s-4.5-2.02-4.5-4.5c0-2.5 2-4.5 4.5-4.5s4.5 2 4.5 4.5zm0 18.05c0 2.5-2 4.5-4.5 4.5s-4.5-2-4.5-4.5c0-2.48 2-4.5 4.5-4.5s4.5 2.02 4.5 4.5zm0 18.05c0 2.5-2 4.5-4.5 4.5s-4.5-2-4.5-4.5c0-2.48 2-4.5 4.5-4.5s4.5 2.02 4.5 4.5zm0 18.05c0 2.5-2 4.5-4.5 4.5s-4.5-2-4.5-4.5 2-4.5 4.5-4.5 4.5 2 4.5 4.5zm0 18.05c0 2.48-2 4.5-4.5 4.5s-4.5-2.02-4.5-4.5c0-2.5 2-4.5 4.5-4.5s4.5 2 4.5 4.5zm0 18.04c0 2.48-2 4.5-4.5 4.5s-4.5-2.02-4.5-4.5c0-2.5 2-4.5 4.5-4.5s4.5 2 4.5 4.5z"/><path d="M480 369.84l12.73 21.52h-25.46zM480 530.16l-12.73-21.52h25.46z" stroke="#000" stroke-width="9" fill="#fff"/><use xlink:href="#c" transform="matrix(1,0,0,1,487.99999999999994,439.2) translate(0 14.4)"/><use xlink:href="#d" transform="matrix(1,0,0,1,487.99999999999994,439.2) translate(5 14.4)"/><path d="M860 240h804.8v420H860z" stroke="#000" stroke-width="2" fill="#f9d2de" fill-opacity=".32"/><path d="M1092 260c26.5 0 48 17.9 48 40s-21.5 40-48 40H948c-26.5 0-48-17.9-48-40s21.5-40 48-40z" stroke="#000" stroke-width="2" fill="#fff"/><use xlink:href="#e" transform="matrix(1,0,0,1,905,265) translate(29.10000000000001 38.6)"/><path d="M1092 560c26.5 0 48 17.9 48 40s-21.5 40-48 40H948c-26.5 0-48-17.9-48-40s21.5-40 48-40z" stroke="#000" stroke-width="2" fill="#fff"/><use xlink:href="#f" transform="matrix(1,0,0,1,905,565) translate(78.5 38.6)"/><path d="M1348 250h84l28 50-28 50h-84l-28-50z" stroke="#000" stroke-width="2" fill="#fff"/><use xlink:href="#g" transform="matrix(1,0,0,1,1325,255) translate(29.025 48.6)"/><use xlink:href="#h" transform="matrix(1,0,0,1,1325,255) translate(58.025 48.6)"/><path d="M1142 300h158.35" stroke="#000" stroke-width="2" fill="none"/><path d="M1142.03 301h-1.08l.05-.98v-.33l-.04-.7h1.07z"/><path d="M1315.62 300l-14.27 4.64v-9.28z" stroke="#000" stroke-width="2"/><path d="M1020 342v216" stroke="#000" stroke-width="2" fill="none"/><path d="M1021 342.03h-2V341h2zM1021 559h-2v-1.03h2z"/><path d="M562 300h318.5" fill="none"/><path d="M562 300h9.65m9.65 0h19.3m9.66 0h19.3m9.65 0h19.3m9.67 0h19.3m9.65 0h19.3m9.65 0h19.3m9.66 0h19.3m9.65 0h19.3m9.66 0h19.3m9.65 0h19.3m9.65 0h9.65" stroke="#000" stroke-width="2" fill="none"/><path d="M562.03 301H561v-2h1.03z"/><path d="M895.76 300l-14.26 4.64v-9.28z" stroke="#000" stroke-width="2"/><use xlink:href="#i" transform="matrix(1,0,0,1,687.525,274.4) translate(0 14.4)"/><path d="M562 600h318.5" fill="none"/><path d="M562 600h9.65m9.65 0h19.3m9.66 0h19.3m9.65 0h19.3m9.67 0h19.3m9.65 0h19.3m9.65 0h19.3m9.66 0h19.3m9.65 0h19.3m9.66 0h19.3m9.65 0h19.3m9.65 0h9.65" stroke="#000" stroke-width="2" fill="none"/><path d="M562.03 601H561v-2h1.03z"/><path d="M895.76 600l-14.26 4.64v-9.28z" stroke="#000" stroke-width="2"/><g><use xlink:href="#i" transform="matrix(1,0,0,1,684.8583333333333,574.4000000000001) translate(0 14.4)"/></g><defs><path d="M30 0v-248h187v28H63v79h144v27H63v87h162V0H30" id="j"/><path d="M135-143c-3-34-86-38-87 0 15 53 115 12 119 90S17 21 10-45l28-5c4 36 97 45 98 0-10-56-113-15-118-90-4-57 82-63 122-42 12 7 21 19 24 35" id="k"/><path d="M115-194c55 1 70 41 70 98S169 2 115 4C84 4 66-9 55-30l1 105H24l-1-265h31l2 30c10-21 28-34 59-34zm-8 174c40 0 45-34 45-75s-6-73-45-74c-42 0-51 32-51 76 0 43 10 73 51 73" id="l"/><path d="M126-127c33 6 58 20 58 59 0 88-139 92-164 29-3-8-5-16-6-25l32-3c6 27 21 44 54 44 32 0 52-15 52-46 0-38-36-46-79-43v-28c39 1 72-4 72-42 0-27-17-43-46-43-28 0-47 15-49 41l-32-3c6-42 35-63 81-64 48-1 79 21 79 65 0 36-21 52-52 59" id="m"/><path d="M101-251c82-7 93 87 43 132L82-64C71-53 59-42 53-27h129V0H18c2-99 128-94 128-182 0-28-16-43-45-43s-46 15-49 41l-32-3c6-41 34-60 81-64" id="n"/><g id="a"><use transform="matrix(0.05,0,0,0.05,0,0)" xlink:href="#j"/><use transform="matrix(0.05,0,0,0.05,12,0)" xlink:href="#k"/><use transform="matrix(0.05,0,0,0.05,21,0)" xlink:href="#l"/><use transform="matrix(0.05,0,0,0.05,31,0)" xlink:href="#m"/><use transform="matrix(0.05,0,0,0.05,41,0)" xlink:href="#n"/></g><path d="M63-220v92h138v28H63V0H30v-248h175v28H63" id="o"/><path d="M127-220V0H93v-220H8v-28h204v28h-85" id="p"/><g id="b"><use transform="matrix(0.05,0,0,0.05,0,0)" xlink:href="#o"/><use transform="matrix(0.05,0,0,0.05,10.950000000000001,0)" xlink:href="#p"/><use transform="matrix(0.05,0,0,0.05,21.900000000000002,0)" xlink:href="#n"/><use transform="matrix(0.05,0,0,0.05,31.900000000000002,0)" xlink:href="#n"/><use transform="matrix(0.05,0,0,0.05,41.900000000000006,0)" xlink:href="#m"/><use transform="matrix(0.05,0,0,0.05,51.900000000000006,0)" xlink:href="#n"/></g><path d="M153-248C145-148 188 4 80 4 36 3 13-21 6-62l32-5c4 25 16 42 43 43 27 0 39-20 39-49v-147H72v-28h81" id="q"/><path d="M205 0l-28-72H64L36 0H1l101-248h38L239 0h-34zm-38-99l-47-123c-12 45-31 82-46 123h93" id="r"/><path d="M143 4C61 4 22-44 18-125c-5-107 100-154 193-111 17 8 29 25 37 43l-32 9c-13-25-37-40-76-40-61 0-88 39-88 99 0 61 29 100 91 101 35 0 62-11 79-27v-45h-74v-28h105v86C228-13 192 4 143 4" id="s"/><g id="d"><use transform="matrix(0.05,0,0,0.05,0,0)" xlink:href="#q"/><use transform="matrix(0.05,0,0,0.05,9,0)" xlink:href="#p"/><use transform="matrix(0.05,0,0,0.05,18.6,0)" xlink:href="#r"/><use transform="matrix(0.05,0,0,0.05,30.6,0)" xlink:href="#s"/></g><path d="M195 0l-74-108L45 0H8l94-129-87-119h37l69 98 67-98h37l-84 118L233 0h-38" id="t"/><path d="M59-47c-2 24 18 29 38 22v24C64 9 27 4 27-40v-127H5v-23h24l9-43h21v43h35v23H59v120" id="u"/><path d="M100-194c63 0 86 42 84 106H49c0 40 14 67 53 68 26 1 43-12 49-29l28 8c-11 28-37 45-77 45C44 4 14-33 15-96c1-61 26-98 85-98zm52 81c6-60-76-77-97-28-3 7-6 17-6 28h103" id="v"/><path d="M117-194c89-4 53 116 60 194h-32v-121c0-31-8-49-39-48C34-167 62-67 57 0H25l-1-190h30c1 10-1 24 2 32 11-22 29-35 61-36" id="w"/><path d="M141-36C126-15 110 5 73 4 37 3 15-17 15-53c-1-64 63-63 125-63 3-35-9-54-41-54-24 1-41 7-42 31l-33-3c5-37 33-52 76-52 45 0 72 20 72 64v82c-1 20 7 32 28 27v20c-31 9-61-2-59-35zM48-53c0 20 12 33 32 33 41-3 63-29 60-74-43 2-92-5-92 41" id="x"/><path d="M16-82v-28h88v28H16" id="y"/><path d="M24 0v-261h32V0H24" id="z"/><path d="M101-234c-31-9-42 10-38 44h38v23H63V0H32v-167H5v-23h27c-7-52 17-82 69-68v24" id="A"/><path d="M177-190C167-65 218 103 67 71c-23-6-38-20-44-43l32-5c15 47 100 32 89-28v-30C133-14 115 1 83 1 29 1 15-40 15-95c0-56 16-97 71-98 29-1 48 16 59 35 1-10 0-23 2-32h30zM94-22c36 0 50-32 50-73 0-42-14-75-50-75-39 0-46 34-46 75s6 73 46 73" id="B"/><path d="M85-194c31 0 48 13 60 33l-1-100h32l1 261h-30c-2-10 0-23-3-31C134-8 116 4 85 4 32 4 16-35 15-94c0-66 23-100 70-100zm9 24c-40 0-46 34-46 75 0 40 6 74 45 74 42 0 51-32 51-76 0-42-9-74-50-73" id="C"/><path d="M115-194c53 0 69 39 70 98 0 66-23 100-70 100C84 3 66-7 56-30L54 0H23l1-261h32v101c10-23 28-34 59-34zm-8 174c40 0 45-34 45-75 0-40-5-75-45-74-42 0-51 32-51 76 0 43 10 73 51 73" id="D"/><g id="e"><use transform="matrix(0.05,0,0,0.05,0,0)" xlink:href="#t"/><use transform="matrix(0.05,0,0,0.05,12,0)" xlink:href="#u"/><use transform="matrix(0.05,0,0,0.05,17,0)" xlink:href="#v"/><use transform="matrix(0.05,0,0,0.05,27,0)" xlink:href="#w"/><use transform="matrix(0.05,0,0,0.05,37,0)" xlink:href="#k"/><use transform="matrix(0.05,0,0,0.05,46,0)" xlink:href="#x"/><use transform="matrix(0.05,0,0,0.05,56,0)" xlink:href="#y"/><use transform="matrix(0.05,0,0,0.05,61.95,0)" xlink:href="#v"/><use transform="matrix(0.05,0,0,0.05,71.95,0)" xlink:href="#k"/><use transform="matrix(0.05,0,0,0.05,80.95,0)" xlink:href="#l"/><use transform="matrix(0.05,0,0,0.05,90.95,0)" xlink:href="#m"/><use transform="matrix(0.05,0,0,0.05,100.95,0)" xlink:href="#n"/><use transform="matrix(0.05,0,0,0.05,110.95,0)" xlink:href="#y"/><use transform="matrix(0.05,0,0,0.05,116.9,0)" xlink:href="#v"/><use transform="matrix(0.05,0,0,0.05,126.9,0)" xlink:href="#z"/><use transform="matrix(0.05,0,0,0.05,130.85,0)" xlink:href="#A"/><use transform="matrix(0.05,0,0,0.05,135.85,0)" xlink:href="#y"/><use transform="matrix(0.05,0,0,0.05,141.79999999999998,0)" xlink:href="#B"/><use transform="matrix(0.05,0,0,0.05,151.79999999999998,0)" xlink:href="#C"/><use transform="matrix(0.05,0,0,0.05,161.79999999999998,0)" xlink:href="#D"/></g><path d="M140-251c81 0 123 46 123 126C263-46 219 4 140 4 59 4 17-45 17-125s42-126 123-126zm0 227c63 0 89-41 89-101s-29-99-89-99c-61 0-89 39-89 99S79-25 140-24" id="E"/><path d="M100-194c62-1 85 37 85 99 1 63-27 99-86 99S16-35 15-95c0-66 28-99 85-99zM99-20c44 1 53-31 53-75 0-43-8-75-51-75s-53 32-53 75 10 74 51 75" id="F"/><path d="M96-169c-40 0-48 33-48 73s9 75 48 75c24 0 41-14 43-38l32 2c-6 37-31 61-74 61-59 0-76-41-82-99-10-93 101-131 147-64 4 7 5 14 7 22l-32 3c-4-21-16-35-41-35" id="G"/><g id="f"><use transform="matrix(0.05,0,0,0.05,0,0)" xlink:href="#E"/><use transform="matrix(0.05,0,0,0.05,14,0)" xlink:href="#l"/><use transform="matrix(0.05,0,0,0.05,24,0)" xlink:href="#v"/><use transform="matrix(0.05,0,0,0.05,34,0)" xlink:href="#w"/><use transform="matrix(0.05,0,0,0.05,44,0)" xlink:href="#F"/><use transform="matrix(0.05,0,0,0.05,54,0)" xlink:href="#G"/><use transform="matrix(0.05,0,0,0.05,63,0)" xlink:href="#C"/></g><path d="M137 0h-34L2-248h35l83 218 83-218h36" id="H"/><path d="M185-189c-5-48-123-54-124 2 14 75 158 14 163 119 3 78-121 87-175 55-17-10-28-26-33-46l33-7c5 56 141 63 141-1 0-78-155-14-162-118-5-82 145-84 179-34 5 7 8 16 11 25" id="I"/><g id="g"><use transform="matrix(0.05,0,0,0.05,0,0)" xlink:href="#H"/><use transform="matrix(0.05,0,0,0.05,12,0)" xlink:href="#I"/></g><path d="M212-179c-10-28-35-45-73-45-59 0-87 40-87 99 0 60 29 101 89 101 43 0 62-24 78-52l27 14C228-24 195 4 139 4 59 4 22-46 18-125c-6-104 99-153 187-111 19 9 31 26 39 46" id="J"/><g id="h"><use transform="matrix(0.05,0,0,0.05,0,0)" xlink:href="#J"/><use transform="matrix(0.05,0,0,0.05,12.950000000000001,0)" xlink:href="#F"/><use transform="matrix(0.05,0,0,0.05,22.950000000000003,0)" xlink:href="#C"/><use transform="matrix(0.05,0,0,0.05,32.95,0)" xlink:href="#v"/></g><path d="M232-93c-1 65-40 97-104 97C67 4 28-28 28-90v-158h33c8 89-33 224 67 224 102 0 64-133 71-224h33v155" id="K"/><path d="M160-131c35 5 61 23 61 61C221 17 115-2 30 0v-248c76 3 177-17 177 60 0 33-19 50-47 57zm-97-11c50-1 110 9 110-42 0-47-63-36-110-37v79zm0 115c55-2 124 14 124-45 0-56-70-42-124-44v89" id="L"/><g id="i"><use transform="matrix(0.05,0,0,0.05,0,0)" xlink:href="#K"/><use transform="matrix(0.05,0,0,0.05,12.950000000000001,0)" xlink:href="#I"/><use transform="matrix(0.05,0,0,0.05,24.950000000000003,0)" xlink:href="#L"/></g></defs></g></svg>